<svg xmlns="http://www.w3.org/2000/svg" width="256" height="256"><path fill-opacity=".016" d="M0 128.004v128.004l128.25-.254 128.25-.254.254-127.75L257.008 0H0v128.004m.485.496c0 70.4.119 99.053.265 63.672.146-35.38.146-92.98 0-128C.604 29.153.485 58.1.485 128.5" fill="#1976D2" fill-rule="evenodd"/><path fill-opacity=".163" d="M32 8.465C32 16.341 32.841 17 42.899 17c6.007 0 7.186.291 8.101 2 .752 1.406 2.094 2 4.516 2 2.906 0 3.566.431 4.215 2.75.423 1.512.735 45.725.693 98.25-.08 100.564-.054 100-4.518 100-1.113 0-3.797 1.425-5.965 3.167-3.345 2.689-3.941 3.744-3.941 6.981 0 3.127.405 3.912 2.25 4.358 1.238.299 39.375.42 84.75.269l82.5-.275.55-17.5c.436-13.853.903-18.125 2.244-20.5 1.123-1.989 1.696-5.262 1.7-9.715.005-5.865-.268-6.861-2.159-7.873-2.163-1.158-14.304-.776-15.57.489-.342.343-.881 4.139-1.196 8.435-.406 5.524-1.086 8.324-2.322 9.56-1.187 1.187-1.747 3.316-1.747 6.64 0 6.094-1.338 6.964-10.712 6.964-5.606 0-7.153.362-8.556 2-1.642 1.917-2.95 2-31.663 2-22.863 0-30.142-.296-30.76-1.25-1.117-1.726-2.02-90.947-.937-92.5.65-.93 6.05-1.25 21.097-1.25 18.79 0 20.389.142 22.531 2 1.529 1.326 3.741 2 6.564 2 3.527 0 4.703.528 6.847 3.077 2.422 2.878 2.589 3.747 2.589 13.481 0 10.359.011 10.407 2.589 11.054 2.932.735 14.217-.085 15.24-1.108 1.31-1.31.093-24.888-1.406-27.219-1.73-2.692-1.994-19.314-.333-20.975 1.096-1.096 3.052-24.778 2.224-26.933-.534-1.392-5.031-2.377-10.857-2.377-7.315 0-7.457.184-7.457 9.665v8.451l-4.25 4.488-4.25 4.488-25.331.04c-13.932.022-25.567-.197-25.857-.486-.695-.696-.487-39.496.332-61.914.629-17.195.721-17.785 2.842-18.318 1.205-.302 12.871-.407 25.924-.232 21.366.286 23.831.493 24.711 2.068.784 1.403 2.346 1.75 7.864 1.75 11.705 0 11.595-.12 12.415 13.595.829 13.865 1.16 14.326 10.315 14.373 7.856.04 8.285-.667 8.285-13.666 0-7.34.507-11.217 2-15.302 1.397-3.823 2-7.962 2-13.736V2H32v6.465M8.64 243.069c-3.149 2.477-3.411 5.448-.612 6.946 1.115.597 1.764 1.513 1.441 2.035-.37.598 44.161.907 120.222.834 66.445-.064 119.958-.334 118.918-.6-1.693-.434-1.59-.724.982-2.775 2.552-2.035 2.76-2.609 1.866-5.149l-1.005-2.86-119.586-.254-119.586-.254-2.64 2.077M255.158 246c0 1.375.227 1.938.504 1.25.278-.687.278-1.812 0-2.5-.277-.687-.504-.125-.504 1.25" fill="#1976D2" fill-rule="evenodd"/><path fill-opacity=".491" d="M34 8.383c0 7.344.314 7.58 10.123 7.603 4.629.012 13.46 2.592 15.754 4.604 1.039.912 2.156 10.472 2.85 24.41.794 15.922 1.053 104.942.415 142.673-.301 17.824-1.761 32.8-3.279 33.634-.2.11-1.713 1.141-3.363 2.291-1.65 1.151-4.462 2.848-6.25 3.773-2.562 1.324-3.25 2.31-3.25 4.655V235h83.393c75.121 0 83.453-.157 84-1.582.334-.87.608-8.407.61-16.75.002-9.28.612-18.646 1.571-24.13 1.477-8.445 1.466-9.036-.194-10.25-2.386-1.744-8.45-1.628-11.078.213-1.686 1.181-2.283 2.939-2.798 8.25-.36 3.712-1.762 10.175-3.116 14.362-2.315 7.161-2.698 7.705-6.456 9.182-2.304.905-5.398 1.341-7.309 1.031-2.052-.333-4.495.074-6.419 1.068-4.497 2.326-62.605 2.415-65.908.101-2.143-1.501-2.149-1.626-2.256-47.88-.097-41.835.051-46.436 1.508-46.995.889-.341 11.268-.62 23.066-.62 16.805 0 22.228.325 25.04 1.5 1.975.825 4.548 1.502 5.718 1.505 1.17.003 3.478 1.084 5.128 2.403 2.954 2.362 3.005 2.566 3.343 13.245.189 5.966.807 11.41 1.373 12.097 1.102 1.339 9.623 1.705 11.284.485.635-.467 1-14.225 1-37.735 0-23.51-.365-37.268-1-37.735-1.662-1.221-10.185-.854-11.25.485-.547.688-1.226 5.504-1.508 10.704-.492 9.046-.649 9.574-3.644 12.25-1.741 1.555-4.343 2.82-5.864 2.85-16.076.319-52.418-.05-53.212-.54-1.154-.714-1.29-56.22-.173-70.853.547-7.176 1.048-9.116 2.662-10.31 1.658-1.227 6.346-1.42 28.191-1.161 19.278.228 26.531.64 27.45 1.56.686.688 3.647 1.25 6.58 1.25 2.933 0 6.862.639 8.731 1.42 4.212 1.76 5.524 5.513 6.263 17.903.47 7.889.755 8.91 2.7 9.649 2.385.907 7.411.282 9.226-1.147.692-.545 1.413-5.977 1.808-13.616.361-6.99 1.305-16.02 2.098-20.066.793-4.046 1.442-9.109 1.442-11.25V2H34v6.383" fill="#1976D2" fill-rule="evenodd"/><path fill-opacity=".429" d="M36.78 7.25c-.227 2.888-.034 5.759.428 6.382.48.645 4.887 1.309 10.26 1.544 10.889.476 12.083 1.172 15.689 9.145l2.341 5.179-.089 92-.09 92-2.48 4.761c-2.361 4.532-7.91 9.739-10.378 9.739-1.445 0-4.461 3.265-4.461 4.829 0 .885 20.099 1.171 82.393 1.171h82.392l.609-17.75c.334-9.762.965-21.034 1.401-25.049.585-5.386.47-7.566-.441-8.322-1.715-1.423-6.507-.692-7.348 1.121-.382.825-1.285 2.619-2.007 3.986-.721 1.368-1.632 5.761-2.024 9.764-.855 8.734-3.788 14.762-8.859 18.205l-3.616 2.455-39.784.045c-34.307.039-39.914-.161-40.734-1.455-.566-.892-.958-20.388-.967-48.128-.013-39.579.205-46.809 1.439-47.834 1.079-.895 8.524-1.12 28.92-.872 26.884.327 27.518.382 29.861 2.584 1.317 1.237 2.901 2.25 3.52 2.25.62 0 1.425.482 1.788 1.07.998 1.614 2.729 14.866 2.552 19.533-.187 4.939 1.496 6.656 6.09 6.215l3.315-.318v-74l-3.586-.301c-2.072-.173-4.032.249-4.643 1-.582.716-1.539 5.773-2.126 11.239-.918 8.548-1.425 10.297-3.628 12.5l-2.561 2.562h-28.728c-15.8 0-29.515-.323-30.478-.719-1.621-.665-1.749-3.358-1.741-36.5.004-19.679.29-38.129.635-40.998.917-7.635 1.097-7.667 39.88-7.063l32.143.501 4.69 2.748c2.579 1.511 5.183 3.672 5.788 4.802.604 1.129 1.22 6.773 1.368 12.54.21 8.172.607 10.677 1.799 11.344 1.954 1.093 6.221-.495 7.036-2.62 1.007-2.623 2.499-18.009 3.18-32.785L206.161 2H37.193l-.413 5.25" fill="#1976D2" fill-rule="evenodd"/></svg>