<svg width="120" height="120" viewBox="0 0 120 120" fill="none" xmlns="http://www.w3.org/2000/svg">
<rect width="120" height="120" fill="#D680AD"/>
<path d="M12.7148 20.9688H14.5195C15.3789 20.9688 16.0156 20.7539 16.4297 20.3242C16.8438 19.8945 17.0508 19.3242 17.0508 18.6133C17.0508 17.9258 16.8438 17.3906 16.4297 17.0078C16.0234 16.625 15.4609 16.4336 14.7422 16.4336C14.0938 16.4336 13.5508 16.6133 13.1133 16.9727C12.6758 17.3242 12.457 17.7852 12.457 18.3555H9.07031C9.07031 17.4648 9.30859 16.668 9.78516 15.9648C10.2695 15.2539 10.9414 14.6992 11.8008 14.3008C12.668 13.9023 13.6211 13.7031 14.6602 13.7031C16.4648 13.7031 17.8789 14.1367 18.9023 15.0039C19.9258 15.8633 20.4375 17.0508 20.4375 18.5664C20.4375 19.3477 20.1992 20.0664 19.7227 20.7227C19.2461 21.3789 18.6211 21.8828 17.8477 22.2344C18.8086 22.5781 19.5234 23.0938 19.9922 23.7812C20.4688 24.4688 20.707 25.2812 20.707 26.2188C20.707 27.7344 20.1523 28.9492 19.043 29.8633C17.9414 30.7773 16.4805 31.2344 14.6602 31.2344C12.957 31.2344 11.5625 30.7852 10.4766 29.8867C9.39844 28.9883 8.85938 27.8008 8.85938 26.3242H12.2461C12.2461 26.9648 12.4844 27.4883 12.9609 27.8945C13.4453 28.3008 14.0391 28.5039 14.7422 28.5039C15.5469 28.5039 16.1758 28.293 16.6289 27.8711C17.0898 27.4414 17.3203 26.875 17.3203 26.1719C17.3203 24.4688 16.3828 23.6172 14.5078 23.6172H12.7148V20.9688Z" fill="white"/>
<path d="M29.7759 16.8364H27.939V20H26.9023V12.1797H29.4912C30.3721 12.1797 31.0488 12.3802 31.5215 12.7812C31.9977 13.1823 32.2358 13.766 32.2358 14.5322C32.2358 15.0192 32.1034 15.4435 31.8384 15.8052C31.577 16.1668 31.2118 16.4372 30.7427 16.6162L32.5796 19.9355V20H31.4731L29.7759 16.8364ZM27.939 15.9932H29.5234C30.0355 15.9932 30.4419 15.8607 30.7427 15.5957C31.047 15.3307 31.1992 14.9762 31.1992 14.5322C31.1992 14.0488 31.0542 13.6782 30.7642 13.4204C30.4777 13.1626 30.0623 13.0319 29.5181 13.0283H27.939V15.9932ZM38.1064 16.3853H34.7173V19.1567H38.6543V20H33.686V12.1797H38.6006V13.0283H34.7173V15.542H38.1064V16.3853ZM45.7119 18.9741C45.4469 19.3537 45.0763 19.6383 44.6001 19.8281C44.1274 20.0143 43.576 20.1074 42.9458 20.1074C42.3084 20.1074 41.7427 19.9588 41.2485 19.6616C40.7544 19.3608 40.3713 18.9347 40.0991 18.3833C39.8306 17.8319 39.6927 17.1927 39.6855 16.4658V15.7837C39.6855 14.6056 39.9595 13.6925 40.5073 13.0444C41.0588 12.3963 41.8322 12.0723 42.8276 12.0723C43.644 12.0723 44.3011 12.2817 44.7988 12.7007C45.2965 13.116 45.6009 13.7069 45.7119 14.4731H44.6807C44.4873 13.4383 43.8714 12.9209 42.833 12.9209C42.1419 12.9209 41.6174 13.1644 41.2593 13.6514C40.9048 14.1348 40.7257 14.8366 40.7222 15.7568V16.396C40.7222 17.2733 40.9227 17.9715 41.3237 18.4907C41.7248 19.0063 42.2673 19.2642 42.9512 19.2642C43.3379 19.2642 43.6763 19.2212 43.9663 19.1353C44.2563 19.0493 44.4963 18.9043 44.686 18.7002V16.9438H42.876V16.106H45.7119V18.9741ZM48.5425 20H47.5112V12.1797H48.5425V20ZM56.4487 16.3423C56.4487 17.1086 56.3198 17.7782 56.062 18.3511C55.8042 18.9204 55.439 19.3555 54.9663 19.6562C54.4937 19.957 53.9422 20.1074 53.312 20.1074C52.6961 20.1074 52.1501 19.957 51.6738 19.6562C51.1976 19.3519 50.827 18.9204 50.562 18.3618C50.3006 17.7996 50.1663 17.1497 50.1592 16.4121V15.8481C50.1592 15.0962 50.2899 14.432 50.5513 13.8555C50.8127 13.279 51.1815 12.8385 51.6577 12.5342C52.1375 12.2262 52.6854 12.0723 53.3013 12.0723C53.9279 12.0723 54.4793 12.2244 54.9556 12.5288C55.4354 12.8296 55.8042 13.2682 56.062 13.8447C56.3198 14.4176 56.4487 15.0854 56.4487 15.8481V16.3423ZM55.4229 15.8374C55.4229 14.91 55.2367 14.1992 54.8643 13.7051C54.4919 13.2074 53.9709 12.9585 53.3013 12.9585C52.6496 12.9585 52.1357 13.2074 51.7598 13.7051C51.3874 14.1992 51.1958 14.8867 51.1851 15.7676V16.3423C51.1851 17.241 51.373 17.9482 51.749 18.4639C52.1286 18.9759 52.6496 19.2319 53.312 19.2319C53.978 19.2319 54.4937 18.9902 54.8589 18.5068C55.2241 18.0199 55.4121 17.3234 55.4229 16.4175V15.8374ZM64.0059 20H62.9692L59.0322 13.9736V20H57.9956V12.1797H59.0322L62.98 18.2329V12.1797H64.0059V20ZM70.2524 17.959H66.9761L66.2402 20H65.1768L68.1631 12.1797H69.0654L72.0571 20H70.999L70.2524 17.959ZM67.2876 17.1104H69.9463L68.6143 13.4526L67.2876 17.1104ZM74.1465 19.1567H77.8525V20H73.1099V12.1797H74.1465V19.1567ZM84.3462 18.6304L86.5806 12.1797H87.7085L84.8081 20H83.895L81 12.1797H82.1226L84.3462 18.6304ZM92.6714 17.959H89.395L88.6592 20H87.5957L90.582 12.1797H91.4844L94.4761 20H93.418L92.6714 17.959ZM89.7065 17.1104H92.3652L91.0332 13.4526L89.7065 17.1104ZM96.5654 19.1567H100.271V20H95.5288V12.1797H96.5654V19.1567ZM106.663 12.1797V17.4971C106.66 18.2347 106.427 18.8381 105.965 19.3071C105.507 19.7762 104.883 20.0394 104.096 20.0967L103.822 20.1074C102.966 20.1074 102.284 19.8765 101.775 19.4146C101.267 18.9526 101.009 18.3171 101.002 17.5078V12.1797H102.022V17.4756C102.022 18.0413 102.178 18.4818 102.49 18.7969C102.801 19.1084 103.245 19.2642 103.822 19.2642C104.405 19.2642 104.851 19.1084 105.159 18.7969C105.471 18.4854 105.626 18.0467 105.626 17.481V12.1797H106.663ZM112.711 16.3853H109.322V19.1567H113.259V20H108.291V12.1797H113.205V13.0283H109.322V15.542H112.711V16.3853ZM32.6602 30.5186C32.5635 31.3457 32.2573 31.9849 31.7417 32.436C31.2297 32.8836 30.5475 33.1074 29.6953 33.1074C28.7715 33.1074 28.0303 32.7762 27.4717 32.1138C26.9167 31.4513 26.6392 30.5651 26.6392 29.4551V28.7031C26.6392 27.9762 26.7681 27.3371 27.0259 26.7856C27.2873 26.2342 27.6561 25.8117 28.1323 25.5181C28.6086 25.2209 29.16 25.0723 29.7866 25.0723C30.6174 25.0723 31.2834 25.305 31.7847 25.7705C32.286 26.2324 32.5778 26.8734 32.6602 27.6934H31.6235C31.534 27.0703 31.3389 26.6191 31.0381 26.3398C30.7409 26.0605 30.3237 25.9209 29.7866 25.9209C29.1278 25.9209 28.6104 26.1644 28.2344 26.6514C27.862 27.1383 27.6758 27.8312 27.6758 28.73V29.4873C27.6758 30.3359 27.853 31.0109 28.2075 31.5122C28.562 32.0135 29.0579 32.2642 29.6953 32.2642C30.2682 32.2642 30.7069 32.1353 31.0112 31.8774C31.3192 31.616 31.5233 31.1631 31.6235 30.5186H32.6602ZM40.083 33H39.0464V29.3853H35.104V33H34.0728V25.1797H35.104V28.542H39.0464V25.1797H40.083V33ZM46.3296 30.959H43.0532L42.3174 33H41.2539L44.2402 25.1797H45.1426L48.1343 33H47.0762L46.3296 30.959ZM43.3647 30.1104H46.0234L44.6914 26.4526L43.3647 30.1104ZM50.2935 33H49.2622V25.1797H50.2935V33ZM58.1943 33H57.1577L53.2207 26.9736V33H52.1841V25.1797H53.2207L57.1685 31.2329V25.1797H58.1943V33ZM62.3301 29.5142C61.4456 29.2599 60.8011 28.9484 60.3965 28.5796C59.9954 28.2072 59.7949 27.7489 59.7949 27.2046C59.7949 26.5887 60.0402 26.0802 60.5308 25.6792C61.0249 25.2746 61.6659 25.0723 62.4536 25.0723C62.9907 25.0723 63.4688 25.1761 63.8877 25.3838C64.3102 25.5915 64.6361 25.8779 64.8652 26.2432C65.098 26.6084 65.2144 27.0076 65.2144 27.4409H64.1777C64.1777 26.9683 64.0273 26.5977 63.7266 26.3291C63.4258 26.057 63.0015 25.9209 62.4536 25.9209C61.9451 25.9209 61.5477 26.0337 61.2612 26.2593C60.9784 26.4813 60.8369 26.791 60.8369 27.1885C60.8369 27.5072 60.9712 27.7775 61.2397 27.9995C61.5119 28.2179 61.972 28.4185 62.6201 28.6011C63.2718 28.7837 63.7803 28.986 64.1455 29.208C64.5143 29.4264 64.7865 29.6825 64.9619 29.9761C65.141 30.2697 65.2305 30.6152 65.2305 31.0127C65.2305 31.6465 64.9834 32.1549 64.4893 32.5381C63.9951 32.9176 63.3345 33.1074 62.5073 33.1074C61.9702 33.1074 61.4689 33.0054 61.0034 32.8013C60.5379 32.5936 60.1781 32.3107 59.9238 31.9526C59.6732 31.5946 59.5479 31.1882 59.5479 30.7334H60.5845C60.5845 31.2061 60.7581 31.5802 61.1055 31.856C61.4564 32.1281 61.9237 32.2642 62.5073 32.2642C63.0516 32.2642 63.4688 32.1532 63.7588 31.9312C64.0488 31.7091 64.1938 31.4066 64.1938 31.0234C64.1938 30.6403 64.0596 30.3449 63.791 30.1372C63.5225 29.9259 63.0355 29.7183 62.3301 29.5142Z" fill="white"/>
<path d="M67.3636 74C67.3636 81.6566 66.3546 88.5475 64.7499 93.4902C63.9457 95.967 63.0096 97.899 62.0181 99.1907C61.0155 100.497 60.0787 101 59.2727 101C58.4668 101 57.53 100.497 56.5274 99.1907C55.5358 97.899 54.5998 95.967 53.7956 93.4902C52.1909 88.5475 51.1818 81.6566 51.1818 74C51.1818 66.3434 52.1909 59.4525 53.7956 54.5098C54.5998 52.033 55.5358 50.101 56.5274 48.8093C57.53 47.5032 58.4668 47 59.2727 47C60.0787 47 61.0155 47.5032 62.0181 48.8093C63.0096 50.101 63.9457 52.033 64.7499 54.5098C66.3546 59.4525 67.3636 66.3434 67.3636 74Z" stroke="white" stroke-width="2"/>
<line x1="34.9091" y1="64.6365" x2="86.5454" y2="64.6365" stroke="white" stroke-width="2"/>
<line x1="34.9091" y1="64.6365" x2="86.5454" y2="64.6365" stroke="white" stroke-width="2"/>
<circle cx="51.6364" cy="64.9091" r="2.63636" fill="#D680AD" stroke="white" stroke-width="2"/>
<line x1="34.9091" y1="82.0909" x2="86.5455" y2="82.0909" stroke="white" stroke-width="2"/>
<circle cx="66.9091" cy="82.3637" r="2.63636" fill="#D680AD" stroke="white" stroke-width="2"/>
<path fill-rule="evenodd" clip-rule="evenodd" d="M86 74C86 88.3594 74.3594 100 60 100C45.6406 100 34 88.3594 34 74C34 67.6621 36.2677 61.8538 40.0361 57.3424L38.487 56.0771C34.4368 60.9333 32 67.1821 32 74C32 89.464 44.536 102 60 102C75.464 102 88 89.464 88 74C88 58.536 75.464 46 60 46C53.5983 46 47.6984 48.1484 42.9819 51.7635L44.152 53.3867C48.5391 50.0088 54.035 48 60 48C74.3594 48 86 59.6406 86 74ZM42.476 54.7928L41.2992 53.1603C40.8352 53.5769 40.3853 54.0087 39.9501 54.4551L41.5056 55.7255C41.8209 55.4064 42.1445 55.0954 42.476 54.7928Z" fill="white"/>
<circle cx="78.5455" cy="54.7272" r="2.63636" fill="#D680AD" stroke="white" stroke-width="2"/>
<circle cx="40" cy="91.8182" r="2.63636" fill="#D680AD" stroke="white" stroke-width="2"/>
</svg>
